<?xml version="1.0" encoding="utf-8"?>
<!-- Svg Vector Icons : http://www.onlinewebfonts.com/icon -->
<!DOCTYPE svg PUBLIC "-//W3C//DTD SVG 1.1//EN" "http://www.w3.org/Graphics/SVG/1.1/DTD/svg11.dtd">
<svg version="1.1" xmlns="http://www.w3.org/2000/svg" xmlns:xlink="http://www.w3.org/1999/xlink" x="0px" y="0px" viewBox="0 0 1000 1000" enable-background="new 0 0 1000 1000" xml:space="preserve">
<metadata> Svg Vector Icons : http://www.onlinewebfonts.com/icon </metadata>
<g><g transform="translate(0.000000,512.000000) scale(0.100000,-0.100000)"><path d="M4923.9,5007.2c-15.3-7.7-1096.7-756-2403.8-1663.2C900.9,2216.8,139.2,1677,123.9,1642.6c-42.1-90-28.7-160.8,42.1-231.6l65.1-65.1h4769.4h4769.4l65.1,65.1c45.9,45.9,65.1,82.3,65.1,124.4c0,78.5-45.9,166.5-101.4,195.2c-23,13.4-1085.2,748.3-2357.9,1634.5c-1274.6,886.1-2335,1621.1-2357.9,1632.5C5038.7,5022.5,4971.7,5024.4,4923.9,5007.2z M7002.4,3171.8C8101,2408.1,9004.3,1776.6,9010.1,1765.1c7.7-9.6-1510.1-17.2-4021.1-17.2c-2417.2,0-4026.8,7.7-4015.3,17.2c26.8,24.9,4011.5,2796.2,4023,2796.2C5000.4,4561.3,5903.8,3935.4,7002.4,3171.8z"/><path d="M4791.8,3901c-273.7-61.3-501.4-222-656.5-457.4c-250.7-386.6-191.4-924.4,137.8-1255.5c398.1-398.1,1008.6-407.7,1422-19.1c331.1,310.1,415.3,809.6,201,1211.5C5685.6,3774.7,5216.7,3996.7,4791.8,3901z M5283.7,3441.7c204.8-111,319.6-308.1,317.7-545.5c-5.7-645-872.8-834.5-1159.8-252.6c-36.4,74.7-44,120.6-44,262.2c0,149.3,7.7,185.6,51.7,267.9c65.1,124.4,172.2,223.9,302.4,287.1c93.8,44,124.4,49.8,267.9,44C5155.5,3499.1,5199.5,3487.6,5283.7,3441.7z"/><path d="M835.8,917.2c-32.5-15.3-74.6-45.9-91.9-70.8c-40.2-57.4-40.2-168.4,0-225.8C816.7,517.2,577.5,523,5004.3,523c3866.1,0,4105.3,1.9,4168.5,34.4c145.4,72.7,141.6,296.7-7.7,357.9C9067.5,957.4,927.7,957.4,835.8,917.2z"/><path d="M1390.9,56l-65.1-65.1v-1094.7v-1094.8l65.1-65.1l65.1-65.1h683.3h683.3l65.1,65.1l65.1,65.1v1094.8V-9.1L2887.5,56l-65.1,65.1h-683.3h-683.3L1390.9,56z M2550.7-1103.8v-823h-411.5h-411.5v823v823h411.5h411.5V-1103.8z"/><path d="M4301.9,103.8c-21-9.6-55.5-36.3-76.6-59.3C4187,2.4,4187-24.4,4187-1105.8v-1108.1l53.6-51.7l51.7-53.6l666-5.7c365.6-3.8,685.2,0,708.1,5.7c24.9,5.7,67,34.4,91.9,61.3l45.9,49.7v1102.4c0,1016.3-3.8,1106.2-34.4,1142.6c-17.2,23-51.7,51.7-74.6,63.2C5645.4,124.9,4363.1,128.7,4301.9,103.8z M5402.4-1103.8v-823l-405.8,3.8l-407.7,5.7l-5.7,794.3c-1.9,436.4,0,805.7,5.7,817.2c5.7,19.1,107.2,24.9,411.5,24.9h401.9V-1103.8z"/><path d="M7130.6,82.8c-40.2-24.9-67-59.3-80.4-109.1c-28.7-99.5-28.7-2055.5,0-2155c13.4-49.8,40.2-84.2,80.4-109.1c57.4-36.4,101.4-38.3,715.8-38.3c378.9,0,673.7,7.7,702.4,19.1c26.8,9.6,67,45.9,88,80.4c36.4,61.3,38.3,97.6,38.3,1125.4s-1.9,1064.1-38.3,1125.4c-21,34.4-61.3,70.8-88,80.4c-28.7,11.5-323.5,19.1-702.4,19.1C7232,121,7188,119.1,7130.6,82.8z M8254.1-1103.8v-823h-401.9h-401.9v823v823h401.9h401.9V-1103.8z"/><path d="M623.4-2759.4c-105.3-45.9-120.6-101.4-120.6-468.9v-325.4H366.9c-128.2,0-139.7-3.8-201-65.1l-65.1-65.1v-482.3v-482.3l65.1-65.1l65.1-65.1h4746.4c3037.4,0,4765.6,7.7,4796.2,19.1c26.8,9.6,67,45.9,88,80.4c34.4,59.3,38.3,97.6,38.3,512.9c0,415.3-3.8,453.6-38.3,512.9c-47.9,78.5-103.4,99.5-260.3,99.5H9479v344.5v344.5l-55.5,61.2l-55.5,63.2l-4342.6,3.8C1356.4-2732.6,675.1-2736.4,623.4-2759.4z M9077-3352.7v-201H4990.9H904.7v201v201h4086.2H9077V-3352.7z M9479-4169.9v-206.7H4990.9H502.8v206.7v204.8h4488.1H9479V-4169.9z"/></g></g>
</svg>